# xmcd
#
# Track frame offsets:
#	150
#	18953
#	41208
#	57405
#	70785
#	87295
#	101850
#	117598
#	136758
#	155153
#	170283
#	181618
#	197103
#	214135
#	230288
#	248455
#	263998
#	283073
#	297010
#
# Disc length: 4186
#
# Revision: 2
# Processed by: cddbd v1.5.1PL0 Copyright (c) Steve Scherf et al.
# Submitted via: audiograbber 1.82.02
# Normalized: r1:DSETVAR1
#
DISCID=13105813
DTITLE=Various Artist - GoldDisc 2007
DYEAR=1980
DGENRE=Country
TTITLE0=K.T Oslin - Do Ya'
TTITLE1=Conway Twitty - That's My Job
TTITLE2=Forester Sisters - Lyin' In His Arms
TTITLE3=Lee Greenwood - Touch and Go Crazy
TTITLE4=Judy Rodman - Girls Ride Horses Too
TTITLE5=Nitty Gritty Dirt Band - Oh What A Love
TTITLE6=Merle Haggard - Twinkle, Twinkle Lucky Star
TTITLE7=Billy Joe Royal - I'll Pin A Note On Your Pillow
TTITLE8=Dolly Parton, Emmylou Harris and Linda Ronstadt - Those Memories Of You
TTITLE9=Foster and Lloyd - Sure Thing
TTITLE10=Randy Travis - Too Gone Too Long
TTITLE11=Don Williams - I Wouldn't Be A Man
TTITLE12=Judds - Turn It Loose
TTITLE13=Dwight Yoakam - Please, Please Baby
TTITLE14=Kenny Rogers and Ronnie Milsap - Make No Mistake, She's Mine
TTITLE15=Crystal Gayle - Only Love Can Save Me Now
TTITLE16=Glen Campbell - Still Within The Sound Of My Voice
TTITLE17=Alabama - Face To Face
TTITLE18=Restless Heart - Wheels
EXTD=
EXTT0=
EXTT1=
EXTT2=
EXTT3=
EXTT4=
EXTT5=
EXTT6=
EXTT7=
EXTT8=
EXTT9=
EXTT10=
EXTT11=
EXTT12=
EXTT13=
EXTT14=
EXTT15=
EXTT16=
EXTT17=
EXTT18=
PLAYORDER=
